<svg xmlns="http://www.w3.org/2000/svg" viewBox="0 0 500 500"><g id="freepik--Coin--inject-61"><path d="M384.21,106.79h-4c-11,0-19.93,10.77-19.93,24.06s8.92,24.06,19.93,24.06h4c11,0,19.94-10.77,19.94-24.06S395.22,106.79,384.21,106.79Z" style="fill:#407BFF"></path><path d="M384.21,106.79h-4c-11,0-19.93,10.77-19.93,24.06s8.92,24.06,19.93,24.06h4c11,0,19.94-10.77,19.94-24.06S395.22,106.79,384.21,106.79Z" style="isolation:isolate;opacity:0.2"></path><ellipse cx="380.2" cy="130.85" rx="19.94" ry="24.06" style="fill:#407BFF"></ellipse><ellipse cx="380.2" cy="130.85" rx="17.02" ry="20.54" style="fill:#fff;opacity:0.30000000000000004"></ellipse><path d="M381.42,141.92v3.47h-2.1V142a10.1,10.1,0,0,1-6.28-2.57l1.15-3.13a8.9,8.9,0,0,0,5.13,2.35v-6.18c-2.85-.84-5.9-2-5.9-6.25,0-3.16,1.9-5.91,5.9-6.38v-3.49h2.1v3.43a9.71,9.71,0,0,1,5.21,1.89l-1.05,3.12a9.49,9.49,0,0,0-4.16-1.67v6.25c2.85.84,5.95,1.92,5.95,6.22C387.37,138.71,385.45,141.43,381.42,141.92Zm-2.1-13.24v-5.51a2.78,2.78,0,0,0-2.59,2.82C376.73,127.48,377.83,128.16,379.32,128.68Zm4.77,7.15c0-1.52-1.13-2.23-2.67-2.75v5.47C383.29,138.21,384.09,137.16,384.09,135.83Z" style="fill:#407BFF"></path></g><g id="freepik--Bars--inject-61"><path d="M411.7,170.21H357a4.64,4.64,0,0,0-4.64,4.64V416h64V174.85A4.63,4.63,0,0,0,411.7,170.21Z" style="fill:#407BFF"></path><path d="M411.7,170.21H357a4.64,4.64,0,0,0-4.64,4.64V416h64V174.85A4.63,4.63,0,0,0,411.7,170.21Z" style="fill:#fff;opacity:0.1"></path><path d="M357,170.21h51.74a4.64,4.64,0,0,1,4.64,4.64V416a0,0,0,0,1,0,0h-61a0,0,0,0,1,0,0V174.85A4.64,4.64,0,0,1,357,170.21Z" style="fill:#fff;opacity:0.3"></path><path d="M319.34,250.26H264.6A4.64,4.64,0,0,0,260,254.9v42.47h28.4a7.69,7.69,0,0,1-2.26-5.48,7.55,7.55,0,0,1,5.87-7.45,7.54,7.54,0,0,1,5.86,7.45,7.69,7.69,0,0,1-2.25,5.48H324V254.9A4.63,4.63,0,0,0,319.34,250.26Z" style="fill:#407BFF"></path><path d="M298.58,343.45h-3a7.69,7.69,0,0,1,2.25,5.48,7.54,7.54,0,0,1-5.86,7.45,7.55,7.55,0,0,1-5.87-7.45,7.69,7.69,0,0,1,2.26-5.48H260V416h64V343.45H298.58Z" style="fill:#407BFF"></path><path d="M319.34,250.26H264.6A4.64,4.64,0,0,0,260,254.9v42.47h28.4a7.69,7.69,0,0,1-2.26-5.48,7.55,7.55,0,0,1,5.87-7.45,7.54,7.54,0,0,1,5.86,7.45,7.69,7.69,0,0,1-2.25,5.48H324V254.9A4.63,4.63,0,0,0,319.34,250.26Z" style="fill:#fff;opacity:0.1"></path><path d="M298.58,343.45h-3a7.69,7.69,0,0,1,2.25,5.48,7.54,7.54,0,0,1-5.86,7.45,7.55,7.55,0,0,1-5.87-7.45,7.69,7.69,0,0,1,2.26-5.48H260V416h64V343.45H298.58Z" style="fill:#fff;opacity:0.1"></path><path d="M295.58,343.45a7.69,7.69,0,0,1,2.25,5.48,7.37,7.37,0,1,1-14.73,0,7.69,7.69,0,0,1,2.26-5.48H260V416h61V343.45Z" style="fill:#fff;opacity:0.3"></path><path d="M260,254.9v42.47h25.4a7.69,7.69,0,0,1-2.26-5.48,7.37,7.37,0,1,1,14.73,0,7.69,7.69,0,0,1-2.25,5.48H321V254.9a4.63,4.63,0,0,0-4.63-4.64H264.6A4.64,4.64,0,0,0,260,254.9Z" style="fill:#fff;opacity:0.3"></path></g><g id="freepik--speech-bubble--inject-61"><path d="M181.82,157.2H156.4a7.82,7.82,0,0,0-7.83,7.82v25.67a7.83,7.83,0,0,0,7.82,7.83h10.06l2.66,7,2.65-7h10.06a7.83,7.83,0,0,0,7.82-7.83V165A7.82,7.82,0,0,0,181.82,157.2Z" style="fill:#407BFF"></path><path d="M181.82,157.2H156.4a7.82,7.82,0,0,0-7.83,7.82v25.67a7.83,7.83,0,0,0,7.82,7.83h10.06l2.66,7,2.65-7h10.06a7.83,7.83,0,0,0,7.82-7.83V165A7.82,7.82,0,0,0,181.82,157.2Z" style="fill:#fff;opacity:0.4"></path><ellipse cx="169.23" cy="191.36" rx="4.23" ry="2.5" transform="translate(-1.41 1.26) rotate(-0.42)" style="fill:#263238"></ellipse><ellipse cx="169.23" cy="191.36" rx="4.23" ry="2.5" transform="translate(-1.41 1.26) rotate(-0.42)" style="fill:#fff;opacity:0.4"></ellipse><path d="M175.25,186.74a1.23,1.23,0,0,0,.37-.83c0-1.35-2.9-2.43-6.45-2.4s-6.42,1.14-6.41,2.5a1.22,1.22,0,0,0,.38.82,1.08,1.08,0,0,0-.1.43,1.15,1.15,0,0,0,.39.81,1,1,0,0,0-.11.44,1.17,1.17,0,0,0,.4.81.89.89,0,0,0-.12.45,1.14,1.14,0,0,0,.41.8.93.93,0,0,0-.13.45c0,1.13,2.41,2,5.36,2s5.34-1,5.33-2.08a.85.85,0,0,0-.14-.45,1.09,1.09,0,0,0,.4-.8.81.81,0,0,0-.13-.45A1,1,0,0,0,175,188a1.22,1.22,0,0,0,.38-.82A1,1,0,0,0,175.25,186.74Z" style="fill:#263238"></path><path d="M180.49,174.68A11.38,11.38,0,1,0,162,183.61a1.9,1.9,0,0,1,.71,1.62.28.28,0,0,0,0,.09c0,1.37,2.94,2.47,6.55,2.44s6.52-1.16,6.51-2.54v-.09a1.89,1.89,0,0,1,.69-1.63A11.38,11.38,0,0,0,180.49,174.68Z" style="fill:#407BFF"></path><path d="M180.49,174.68A11.38,11.38,0,1,0,162,183.61a1.9,1.9,0,0,1,.71,1.62.28.28,0,0,0,0,.09c0,1.37,2.94,2.47,6.55,2.44s6.52-1.16,6.51-2.54v-.09a1.89,1.89,0,0,1,.69-1.63A11.38,11.38,0,0,0,180.49,174.68Z" style="fill:#fff;opacity:0.9"></path><g style="isolation:isolate;opacity:0.2"><path d="M166.85,186.19a.41.41,0,0,1-.41-.41c0-3.92-3.21-6.92-3.24-6.95a.41.41,0,0,1,.28-.7l1.87,0,.57-1.36a.39.39,0,0,1,.35-.25.39.39,0,0,1,.38.21l1.07,1.93,1-1.95a.46.46,0,0,1,.37-.22.45.45,0,0,1,.36.23l1.06,2.18,1-2.19a.43.43,0,0,1,.37-.24.42.42,0,0,1,.37.25l.59,1.36,1.87,0h0a.41.41,0,0,1,.39.3.41.41,0,0,1-.18.46c-2.67,1.58-3.42,6.95-3.43,7a.41.41,0,0,1-.81-.11c0-.21.64-4.58,2.86-6.82h-1a.4.4,0,0,1-.38-.24l-.34-.78-1,2.15a.41.41,0,0,1-.37.23.43.43,0,0,1-.37-.23l-1.09-2.22-1,1.91a.41.41,0,0,1-.36.21c-.15,0-.29-.08-.36-.21l-1-1.85-.34.83a.42.42,0,0,1-.38.25h-1.2a11,11,0,0,1,2.83,6.85.41.41,0,0,1-.4.41Z"></path></g></g><g id="freepik--Character--inject-61"><path d="M134.62,395.35H79.89A4.63,4.63,0,0,0,75.25,400V416h64V400A4.63,4.63,0,0,0,134.62,395.35Z" style="fill:#407BFF"></path><path d="M134.62,395.35H79.89A4.63,4.63,0,0,0,75.25,400V416h64V400A4.63,4.63,0,0,0,134.62,395.35Z" style="fill:#fff;opacity:0.1"></path><path d="M79.89,395.35h51.74a4.64,4.64,0,0,1,4.64,4.64V416a0,0,0,0,1,0,0h-61a0,0,0,0,1,0,0V400A4.64,4.64,0,0,1,79.89,395.35Z" style="fill:#fff;opacity:0.3"></path><path d="M227,345.9H172.24a4.63,4.63,0,0,0-4.63,4.64V416h64v-65.5A4.64,4.64,0,0,0,227,345.9Z" style="fill:#407BFF"></path><path d="M227,345.9H172.24a4.63,4.63,0,0,0-4.63,4.64V416h64v-65.5A4.64,4.64,0,0,0,227,345.9Z" style="fill:#fff;opacity:0.1"></path><path d="M172.24,345.9H224a4.64,4.64,0,0,1,4.64,4.64V416a0,0,0,0,1,0,0h-61a0,0,0,0,1,0,0v-65.5A4.64,4.64,0,0,1,172.24,345.9Z" style="fill:#fff;opacity:0.3"></path><path d="M184.91,254.78c3.78,2.37,10.9,16.62,10.9,16.62l-6.27,4.86L181,266.62Z" style="fill:#263238"></path><path d="M195.81,271.4l-6.27,4.86L184.82,271,181,266.62l1.4-4.19,2.56-7.65C188.69,257.15,195.81,271.4,195.81,271.4Z" style="fill:#fff;opacity:0.4"></path><path d="M184.82,271,181,266.62l1.4-4.19A32,32,0,0,1,184.82,271Z" style="isolation:isolate;opacity:0.2"></path><polygon points="177.77 301.2 151.86 297.44 154.64 269.14 180.94 272.02 177.77 301.2" style="fill:#263238"></polygon><polygon points="177.77 301.2 151.86 297.44 154.64 269.14 180.94 272.02 177.77 301.2" style="fill:#fff;opacity:0.30000000000000004"></polygon><polyline points="140.88 343.27 161.25 344.68 160.79 336.77 138.78 339.02" style="fill:#ffc2bc"></polyline><path d="M135.77,336.09l-.31,1.11,1.28.69a24.13,24.13,0,0,0-3.68,5.38,19,19,0,0,0-1.66,7.06s1.06,1.89,3.5-2.18a3.26,3.26,0,0,1,.41-.55c1.78-2,6.45-4.32,6.45-4.32l1.46-5.08a7.05,7.05,0,0,0-.62-.62A6.71,6.71,0,0,0,135.77,336.09Z" style="fill:#263238"></path><path d="M142.6,337.58h0c.55.89-3.6,3-5.36,4.92-1.56,1.71-2.64,3.82-1.92,5.11,1.78-2,7.64-4.36,7.64-4.36l1.17-4.08S143,338,142.6,337.58Z" style="fill:#ffc2bc"></path><path d="M172.91,286.55l2.87,13.25s26.37,25.56,26.26,35.5c0,2.06,2.1,8.32-13.93,10.27-8.09,1-40.75-1.42-40.75-1.42V337s22.67-3.49,34.84-3.72l-26.87-23.94-9.06-11.53,7-16.11Z" style="fill:#263238"></path><path d="M188.11,345.57a103.79,103.79,0,0,1-12.51.12c-12.36-.37-28.24-1.54-28.24-1.54V337s15.8-2.43,28.1-3.37c2.44-.18,4.73-.31,6.74-.35l-9.15-8.15-17.72-15.79-3.47-4.42-5.59-7.11,7-16.11,19.67,4.87,2.87,13.25s26.37,25.56,26.26,35.5C202,337.36,204.14,343.62,188.11,345.57Z" style="fill:#fff;opacity:0.2"></path><path d="M155.33,309.32l-3.47-4.42,6.63-4.1s8.64,7.75,14.56,24.31Z" style="isolation:isolate;opacity:0.2"></path><path d="M175.6,345.69c-12.36-.37-28.24-1.54-28.24-1.54V337s15.8-2.43,28.1-3.37A43.58,43.58,0,0,1,175.6,345.69Z" style="isolation:isolate;opacity:0.2"></path><path d="M118.82,394.82l1.15,0,.36-1.41,3.75,1.83,9.62.28s1.57-1.49-3-2.85a4.29,4.29,0,0,1-.65-.27c-2.41-1.22-5.77-5.19-5.77-5.19l-5.28-.15a7.11,7.11,0,0,0-.21,7.73Z" style="fill:#263238"></path><path d="M118.58,387.84h0c.72-.76,3.79,2.75,6.08,4,2,1.09,4.36,1.62,5.42.6-2.41-1.22-6.1-6.33-6.1-6.33l-4.25-.13S118.84,387.35,118.58,387.84Z" style="fill:#ffc2bc"></path><polyline points="124.31 387.24 138.92 372.99 132.72 368.06 119.73 385.97" style="fill:#ffc2bc"></polyline><path d="M171.5,339c-1.76-11.9-5.36-27.17-8.36-39l-1.35-15-14.43-2.49s-7,12.39-3.77,24.09c2.48,9.1,8,20.16,15.27,33.17-15.87,12.64-28.93,28.94-36.34,40.07a10.91,10.91,0,0,0,2.24,2.69,10.38,10.38,0,0,0,3.55,2.25c11.65-11.14,27.6-25,38.84-35.51C170.91,345.88,172.44,343.06,171.5,339Z" style="fill:#263238"></path><path d="M171.5,339c-1.76-11.9-5.36-27.17-8.36-39l-1.35-15-14.43-2.49s-7,12.39-3.77,24.09c2.48,9.1,8,20.16,15.27,33.17-15.87,12.64-28.93,28.94-36.34,40.07a10.91,10.91,0,0,0,2.24,2.69,10.38,10.38,0,0,0,3.55,2.25c11.65-11.14,27.6-25,38.84-35.51C170.91,345.88,172.44,343.06,171.5,339Z" style="fill:#fff;opacity:0.2"></path><path d="M184.91,254.78s-2.2,17.75-12,31.77c0,0-20.9-2.63-25.55-4,2.89-8.56,4.62-14.28,5.82-30.34.29-3.87,3.8-6.1,7.63-5.41A44.2,44.2,0,0,1,171.88,249,121,121,0,0,1,184.91,254.78Z" style="fill:#407BFF"></path><path d="M184.91,254.78a81.06,81.06,0,0,1-3.06,13.08,70.15,70.15,0,0,1-8.94,18.69s-20.9-2.63-25.56-4c.55-1.61,1.06-3.12,1.52-4.62a83.29,83.29,0,0,0,3.32-15.6c.33-2.5.6-5.33.88-8.6,0-.49.07-1,.11-1.51.29-3.88,3.8-6.11,7.63-5.42.54.1,1.69.12,3.5.38.17,0,.33,0,.49.06a46.12,46.12,0,0,1,7.08,1.73c1.16.37,2.53.91,4,1.52h0C180.18,252.35,184.91,254.78,184.91,254.78Z" style="fill:#fff;opacity:0.8"></path><path d="M163.89,266.67h0c-.26,2.21-.56,4.56-.95,7.06-.06.36-.1.56-.1.56-.4,2.54-.89,5.22-1.47,8a177.67,177.67,0,0,1-4.85,18.48l-16.06-4.6s7.69-19,9.55-25.27a21,21,0,0,0,.52-2.2c.68-3.6.94-8.34,1.34-12.35.34-3.4.79-6.29,1.68-7.53,1.62-2.25,7-2,9.69-1.78h.1c.45,0,.82.09,1.07.13l.39,0A124.11,124.11,0,0,1,163.89,266.67Z" style="fill:#263238"></path><path d="M175.84,250.51s5.51,11.92.75,51.5l3.44-.92L182,274.56s2.92-14.63,2.94-19.78C184.91,254.78,178.21,250.67,175.84,250.51Z" style="fill:#263238"></path><path d="M163.89,266.67h0c-.26,2.21-.56,4.56-.95,7.06-.06.36-.1.56-.1.56-.4,2.54-.89,5.22-1.47,8a177.67,177.67,0,0,1-4.85,18.48l-16.06-4.6s7.69-19,9.55-25.27a21,21,0,0,0,.52-2.2c.68-3.6.94-8.34,1.34-12.35.34-3.4.79-6.29,1.68-7.53,1.62-2.25,7-2,9.69-1.78h.1c.45,0,.82.09,1.07.13l.39,0A124.11,124.11,0,0,1,163.89,266.67Z" style="fill:#fff;opacity:0.4"></path><path d="M175.84,250.51s5.51,11.92.75,51.5l3.44-.92L182,274.56s2.92-14.63,2.94-19.78C184.91,254.78,178.21,250.67,175.84,250.51Z" style="fill:#fff;opacity:0.4"></path><path d="M164,267h0c-.42,3.17-.85,5.7-1,6.78-.06.36-.1.56-.1.56L160.42,259h0l-.74-4.72,3.56.84L158,250.51l5.24-3.44h.1l1.07.13.39,0C165.67,252.21,164.82,260.79,164,267Z" style="fill:#263238"></path><path d="M175.84,250.51l-.71-.94s5,3.17,6.93,7L179,257.88l2.49.89-2.93,16.75s-1-18.58-2.67-24.34" style="fill:#263238"></path><path d="M164,267h0c-.42,3.17-.85,5.7-1,6.78-.06.36-.1.56-.1.56L160.42,259h0l-.74-4.72,3.56.84L158,250.51l5.24-3.44h.1l1.07.13.39,0C165.67,252.21,164.82,260.79,164,267Z" style="fill:#fff;opacity:0.2"></path><path d="M175.84,250.51l-.71-.94s5,3.17,6.93,7L179,257.88l2.49.89-2.93,16.75s-1-18.58-2.67-24.34" style="fill:#fff;opacity:0.2"></path><path d="M164,267h0c-.42,3.17-.85,5.7-1,6.78-.06.36-.1.56-.1.56-.4,2.54-.89,5.22-1.47,8-4.7-1.45-8.39-7.85-10.84-13.59.68-3.6.94-8.34,1.34-12.35,2.35-1,5-1.58,6.56-.28a11.18,11.18,0,0,1,2,2.84h0a55.82,55.82,0,0,1,3.47,7.72h0Z" style="isolation:isolate;opacity:0.2"></path><path d="M163,256s-2.44-13.9,8.56-9.34c6.94,2.87,7,13.22,7,13.22l-3.07-3.15a65.33,65.33,0,0,1-3.28,8.91,30.26,30.26,0,0,1-5.61-11.15Z" style="fill:#407BFF"></path><path d="M163,256s-2.44-13.9,8.56-9.34c6.94,2.87,7,13.22,7,13.22l-3.07-3.15a65.33,65.33,0,0,1-3.28,8.91,30.26,30.26,0,0,1-5.61-11.15Z" style="fill:#fff;opacity:0.7000000000000001"></path><path d="M174.63,252.67c.35,4.15-2.47,12.73-2.47,12.73-4.27-4.17-5.61-17.6-5.61-17.6,1.26-.14,1.84-2.31,2.11-4.4a31.11,31.11,0,0,0,.23-3.94l6.88,2.34A19.84,19.84,0,0,0,174,249a8.22,8.22,0,0,0,.18,2.19A14.09,14.09,0,0,0,174.63,252.67Z" style="fill:#ffc2bc"></path><path d="M175.77,241.8A19.84,19.84,0,0,0,174,249a13,13,0,0,1-5.37-5.59,31.11,31.11,0,0,0,.23-3.94Z" style="isolation:isolate;opacity:0.2"></path><path d="M164.34,224.46s-2-4.19-6.29-2.37-4.09,10.77,2.91,8S164.34,224.46,164.34,224.46Z" style="fill:#263238"></path><path d="M166.85,224.11s-2.43-1.05-5,1.94-.82,6.47-.15,6.1S167.19,226,166.85,224.11Z" style="fill:#407BFF"></path><path d="M172.23,242.22s-7.16,4.11-11.16-6.2,10.78-19,15.41-10.22S172.23,242.22,172.23,242.22Z" style="fill:#263238"></path><path d="M164,233.65c2,5.89,2.74,8.42,6.61,10.83,5.83,3.62,12.64.27,12.43-6-.19-5.65-3.45-14.33-10-15.43A8,8,0,0,0,164,233.65Z" style="fill:#ffc2bc"></path><path d="M168.53,228.53c-2.72,4.79,4.86,8.76-2,9.46s-5.52-9.39-1.76-12.18S168.53,228.53,168.53,228.53Z" style="fill:#263238"></path><path d="M164.76,225.88c1.45,4,2.27,5,5.78,3.33a4.33,4.33,0,0,1-1.09-2.71,4.11,4.11,0,0,0,2.39,2,15,15,0,0,1,2.92-1.38,4,4,0,0,1-.44-1.76,3.86,3.86,0,0,0,1.63,1.49,10.45,10.45,0,0,1,3.4.1C178.7,222.57,170.65,219,164.76,225.88Z" style="fill:#263238"></path><path d="M173.69,233.28c.15.5.53.85.86.77s.47-.53.32-1-.53-.85-.86-.78S173.55,232.77,173.69,233.28Z" style="fill:#263238"></path><path d="M179.83,232c.14.5.53.85.85.77s.47-.53.32-1-.53-.85-.85-.78S179.68,231.51,179.83,232Z" style="fill:#263238"></path><path d="M180,231l1.09-.61S180.77,231.5,180,231Z" style="fill:#263238"></path><path d="M178.37,233.21a15.12,15.12,0,0,0,2.71,2.82,2.08,2.08,0,0,1-1.67.72Z" style="fill:#d4827d"></path><path d="M177.1,239.24a5.36,5.36,0,0,0,.85-.11.14.14,0,0,0,.1-.18.15.15,0,0,0-.19-.12,4.38,4.38,0,0,1-3.66-.84.15.15,0,1,0-.2.21A4.6,4.6,0,0,0,177.1,239.24Z" style="fill:#263238"></path><path d="M164.21,239.58a4.27,4.27,0,0,0,2.9,1.88c1.47.17,1.84-1.53,1.14-3.08-.63-1.39-2.15-3.15-3.48-2.6S163.3,238.26,164.21,239.58Z" style="fill:#ffc2bc"></path><path d="M171.57,230.77a.28.28,0,0,0,.2-.12,2.26,2.26,0,0,1,1.85-1,.28.28,0,0,0,.3-.28.34.34,0,0,0-.31-.32,2.82,2.82,0,0,0-2.36,1.28.31.31,0,0,0,.1.43A.36.36,0,0,0,171.57,230.77Z" style="fill:#263238"></path><path d="M180.79,228.87a.29.29,0,0,0,.2-.09.31.31,0,0,0-.05-.43,3.17,3.17,0,0,0-2.73-.77.28.28,0,0,0-.19.37.32.32,0,0,0,.38.21,2.61,2.61,0,0,1,2.16.63A.3.3,0,0,0,180.79,228.87Z" style="fill:#263238"></path><path d="M173.88,232.3l1.09-.61S174.63,232.76,173.88,232.3Z" style="fill:#263238"></path><path d="M223.52,326.37l17.64-42.57-23.08-9.56a7.84,7.84,0,0,0,4.58-5.61,7.41,7.41,0,0,0-2.93-7.72,7,7,0,0,0-5.6-1,7.58,7.58,0,0,0-7.29,4.77,7.82,7.82,0,0,0-.4,4.75l-20.73-8.59-2,.19-17.64,42.56,23.08,9.57a7.84,7.84,0,0,0-4.59,5.6,7.41,7.41,0,0,0,2.94,7.72,7,7,0,0,0,5.6,1,7.58,7.58,0,0,0,7.29-4.77,7.82,7.82,0,0,0,.4-4.75l20.73,8.59Z" style="fill:#407BFF"></path><path d="M223.52,326.37l17.64-42.57-23.08-9.56a7.84,7.84,0,0,0,4.58-5.61,7.41,7.41,0,0,0-2.93-7.72,7,7,0,0,0-5.6-1,7.58,7.58,0,0,0-7.29,4.77,7.82,7.82,0,0,0-.4,4.75l-20.73-8.59-2,.19-17.64,42.56,23.08,9.57a7.84,7.84,0,0,0-4.59,5.6,7.41,7.41,0,0,0,2.94,7.72,7,7,0,0,0,5.6,1,7.58,7.58,0,0,0,7.29-4.77,7.82,7.82,0,0,0,.4-4.75l20.73,8.59Z" style="isolation:isolate;opacity:0.30000000000000004"></path><path d="M241.16,283.8l-23.08-9.56a7.84,7.84,0,0,0,4.58-5.61,7.22,7.22,0,0,0-13.82-4.16,7.78,7.78,0,0,0-.05,5.92l-23.08-9.57-17.64,42.56L191.15,313a7.84,7.84,0,0,0-4.59,5.61,7.23,7.23,0,0,0,13.83,4.15,7.76,7.76,0,0,0,0-5.91l23.09,9.57Z" style="fill:#407BFF"></path><path d="M220.25,276.45l-2.1-2.1a.93.93,0,0,1,0-1.35l1-.86a1.94,1.94,0,0,1,2.88.3l2.52,3.47.29,1-1.54-.64-1.9.45A1.23,1.23,0,0,1,220.25,276.45Z" style="fill:#ffc2bc"></path><path d="M158.68,256.32c1.58,5.92,2.78,12.32,5.54,17.78,0,.09.3.37,1,.66,2.91,1.16,6.95,1.24,10.29,1.33,3.8.05,7.7-.17,11.49-.42a1.94,1.94,0,0,1,.64,3.81,80.18,80.18,0,0,1-11.83,2.26c-4.4.43-8.38.75-12.93-.58a8.67,8.67,0,0,1-4.66-3.39l-.53-.79c-2.47-4.14-3.82-8.61-5.17-13.11-.52-2-1-3.85-1.43-5.88a3.9,3.9,0,0,1,7.62-1.67Z" style="fill:#ebc0bb"></path><path d="M185.8,276l4.6-3.05.86,6.4a7.42,7.42,0,0,1-6.35-1.17Z" style="fill:#ffc2bc"></path><polygon points="195.81 273.4 195.56 278.28 191.26 279.33 190.4 272.93 195.81 273.4" style="fill:#ffc2bc"></polygon><path d="M154.87,247.8c-5.54,2-5.06,9.88-2.2,19.38s7.31,15.38,11.65,16l3.94-7.76a18.49,18.49,0,0,1-3.38-2.38c-1.62-2-6.88-21.82-6.88-21.82Z" style="fill:#263238"></path><path d="M154.87,247.8c-5.54,2-5.06,9.88-2.2,19.38s7.31,15.38,11.65,16l3.94-7.76a18.49,18.49,0,0,1-3.38-2.38c-1.62-2-6.88-21.82-6.88-21.82Z" style="fill:#fff;opacity:0.4"></path><polygon points="168.78 274.96 166.55 273.86 160.08 283.14 164.88 283.59 168.78 274.96" style="fill:#263238"></polygon><polygon points="168.78 274.96 166.55 273.86 160.08 283.14 164.88 283.59 168.78 274.96" style="fill:#fff;opacity:0.2"></polygon></g></svg>
