<svg xmlns="http://www.w3.org/2000/svg" viewBox="0 0 500 500"><g id="freepik--Gears--inject-311"><path d="M234.2,218v-8.21l5.07-1.45a48.79,48.79,0,0,1,1.62-8.15l-4.13-3.3,3.13-7.57,5.24.6a52.12,52.12,0,0,1,4.64-6.91l-2.56-4.62,5.78-5.8,4.64,2.56a49.41,49.41,0,0,1,6.9-4.62l-.6-5.24,7.58-3.15,3.28,4.13a53.45,53.45,0,0,1,8.17-1.62l1.45-5.07h8.19l1.48,5.07a53.68,53.68,0,0,1,8.15,1.62l3.29-4.13,7.57,3.15-.6,5.24a48.93,48.93,0,0,1,6.91,4.62l4.62-2.56,5.81,5.8L327.26,183a51,51,0,0,1,4.62,6.91l5.24-.6,3.15,7.57-4.15,3.3a47.8,47.8,0,0,1,1.62,8.15l5.1,1.45V218l-5.1,1.45a47.34,47.34,0,0,1-1.62,8.16l4.15,3.29-3.15,7.57-5.24-.58a50.82,50.82,0,0,1-4.62,6.89l2.57,4.64L324,255.17l-4.62-2.57a49.93,49.93,0,0,1-6.91,4.64l.6,5.24-7.57,3.13-3.29-4.13a49.2,49.2,0,0,1-8.15,1.62l-1.48,5.08h-8.19L283,263.1a49,49,0,0,1-8.17-1.62l-3.28,4.13-7.58-3.13.6-5.24a50.44,50.44,0,0,1-6.9-4.64L253,255.17l-5.78-5.79,2.56-4.64a51.91,51.91,0,0,1-4.64-6.89l-5.24.58-3.13-7.57,4.13-3.29a48.31,48.31,0,0,1-1.62-8.16Zm54.31,33.73a37.83,37.83,0,1,0-37.83-37.82A37.82,37.82,0,0,0,288.51,251.69Z" style="fill:#407BFF"></path><path d="M234.2,218v-8.21l5.07-1.45a48.79,48.79,0,0,1,1.62-8.15l-4.13-3.3,3.13-7.57,5.24.6a52.12,52.12,0,0,1,4.64-6.91l-2.56-4.62,5.78-5.8,4.64,2.56a49.41,49.41,0,0,1,6.9-4.62l-.6-5.24,7.58-3.15,3.28,4.13a53.45,53.45,0,0,1,8.17-1.62l1.45-5.07h8.19l1.48,5.07a53.68,53.68,0,0,1,8.15,1.62l3.29-4.13,7.57,3.15-.6,5.24a48.93,48.93,0,0,1,6.91,4.62l4.62-2.56,5.81,5.8L327.26,183a51,51,0,0,1,4.62,6.91l5.24-.6,3.15,7.57-4.15,3.3a47.8,47.8,0,0,1,1.62,8.15l5.1,1.45V218l-5.1,1.45a47.34,47.34,0,0,1-1.62,8.16l4.15,3.29-3.15,7.57-5.24-.58a50.82,50.82,0,0,1-4.62,6.89l2.57,4.64L324,255.17l-4.62-2.57a49.93,49.93,0,0,1-6.91,4.64l.6,5.24-7.57,3.13-3.29-4.13a49.2,49.2,0,0,1-8.15,1.62l-1.48,5.08h-8.19L283,263.1a49,49,0,0,1-8.17-1.62l-3.28,4.13-7.58-3.13.6-5.24a50.44,50.44,0,0,1-6.9-4.64L253,255.17l-5.78-5.79,2.56-4.64a51.91,51.91,0,0,1-4.64-6.89l-5.24.58-3.13-7.57,4.13-3.29a48.31,48.31,0,0,1-1.62-8.16Zm54.31,33.73a37.83,37.83,0,1,0-37.83-37.82A37.82,37.82,0,0,0,288.51,251.69Z" style="fill:#fff;opacity:0.7000000000000001"></path><path d="M208.25,276.53a27.88,27.88,0,0,1,2.19-5.14l-1.1-5,7.46-7.46,5,1.1a27.88,27.88,0,0,1,5.14-2.19l3.25-5.08h10.57l3.24,5.08a28,28,0,0,1,5.15,2.19l5-1.1,7.47,7.46-1.1,5a28.58,28.58,0,0,1,2.19,5.14l5.07,3.25v10.56l-5.07,3.25a29.3,29.3,0,0,1-2.19,5.15l1.1,5-7.47,7.47-5-1.1a28.68,28.68,0,0,1-5.15,2.19l-3.24,5.07H230.21L227,312.31a28.58,28.58,0,0,1-5.14-2.19l-5,1.1-7.46-7.47,1.1-5a28.57,28.57,0,0,1-2.19-5.15l-5.07-3.25V279.78Zm27.24,23.16a14.63,14.63,0,1,0-14.62-14.63A14.63,14.63,0,0,0,235.49,299.69Z" style="fill:#407BFF"></path><path d="M208.25,276.53a27.88,27.88,0,0,1,2.19-5.14l-1.1-5,7.46-7.46,5,1.1a27.88,27.88,0,0,1,5.14-2.19l3.25-5.08h10.57l3.24,5.08a28,28,0,0,1,5.15,2.19l5-1.1,7.47,7.46-1.1,5a28.58,28.58,0,0,1,2.19,5.14l5.07,3.25v10.56l-5.07,3.25a29.3,29.3,0,0,1-2.19,5.15l1.1,5-7.47,7.47-5-1.1a28.68,28.68,0,0,1-5.15,2.19l-3.24,5.07H230.21L227,312.31a28.58,28.58,0,0,1-5.14-2.19l-5,1.1-7.46-7.47,1.1-5a28.57,28.57,0,0,1-2.19-5.15l-5.07-3.25V279.78Zm27.24,23.16a14.63,14.63,0,1,0-14.62-14.63A14.63,14.63,0,0,0,235.49,299.69Z" style="fill:#fff;opacity:0.5"></path></g><g id="freepik--Goal--inject-311"><path d="M407.55,99V229.86c18.61,0,36.27-23.48,36.27-65.46S426.16,99,407.55,99Z" style="fill:#263238"></path><path d="M392.27,103.81l-.43-.48a32.87,32.87,0,0,1,2.76-2.23l.38.53A28.43,28.43,0,0,0,392.27,103.81Z" style="fill:#407BFF"></path><path d="M382.29,117.38l-.57-.29A54.2,54.2,0,0,1,388.3,107l.5.42A52.85,52.85,0,0,0,382.29,117.38Z" style="fill:#407BFF"></path><ellipse cx="407.55" cy="164.4" rx="33.69" ry="65.46" style="fill:#407BFF"></ellipse><ellipse cx="407.55" cy="164.4" rx="26.96" ry="52.37" style="fill:#fff"></ellipse><ellipse cx="407.55" cy="164.4" rx="20.22" ry="39.28" style="fill:#407BFF"></ellipse><ellipse cx="407.55" cy="164.4" rx="13.48" ry="26.18" style="fill:#fff"></ellipse><ellipse cx="407.55" cy="164.4" rx="6.74" ry="13.09" style="fill:#407BFF"></ellipse></g><g id="freepik--Arrow--inject-311"><path d="M377,222.67l-46,33.89,20.15,2.74-39.32,65.49-56.55-10a4,4,0,0,0-3.74,1.33l0,0-47,54.36-65.17-10.3a4.65,4.65,0,0,0-3.86,1.16l0,0L84.59,408l0,0a5,5,0,0,0,6.83,7.31l48.72-45.56,65.4,9.77h0a4.35,4.35,0,0,0,4-1.48L256.1,323.1,313,332.76h0a3.78,3.78,0,0,0,3.89-1.81l40.15-68.06,12,16.4Z" style="fill:#263238"></path></g><g id="freepik--Character--inject-311"><path d="M171.56,175.94l-.52.26-.64.33c-.43.24-.88.47-1.32.73-.88.5-1.76,1.05-2.63,1.63-1.75,1.13-3.44,2.39-5.11,3.7s-3.25,2.73-4.82,4.18L154.23,189l-1.12,1.16-.55.59-.21.22a6.06,6.06,0,0,0-.75,4,27.2,27.2,0,0,0,1.13,5.86,83.47,83.47,0,0,0,4.81,12.08l-3.75,2.45a57.58,57.58,0,0,1-7.39-12.21,31.06,31.06,0,0,1-2.25-7.29,17.08,17.08,0,0,1-.18-4.34,11.28,11.28,0,0,1,1.56-4.87,9.69,9.69,0,0,1,.81-1.14l.56-.7,1.14-1.38c.77-.92,1.57-1.81,2.38-2.69a70.47,70.47,0,0,1,5.21-5,58.79,58.79,0,0,1,5.8-4.43c1-.68,2.06-1.33,3.16-1.94.53-.32,1.09-.61,1.66-.9l.89-.43c.32-.15.56-.26,1-.45Z" style="fill:#b55b52"></path><path d="M185.61,140.31c.34,5.33,1.14,17-3,20,0,0,.73,5.46,10.39,6.73,10.63,1.39,5.77-4.61,5.77-4.61-5.62-2.14-4.91-6.43-3.37-10.33Z" style="fill:#b55b52"></path><path d="M180.57,163s-.94-3-1.28-4.75,12.79-1.18,17.14-.07,5.73,6.21,5.73,6.21Z" style="fill:#263238"></path><path d="M205.06,136.58a19.27,19.27,0,0,0,3,4.27,3,3,0,0,1-2.47.73Z" style="fill:#a02724"></path><path d="M202,131.94a.45.45,0,0,1-.19-.05.42.42,0,0,1-.17-.57,4.16,4.16,0,0,1,3.08-2.26.42.42,0,0,1,.45.38.41.41,0,0,1-.37.46h0a3.29,3.29,0,0,0-2.42,1.81A.43.43,0,0,1,202,131.94Z" style="fill:#263238"></path><path d="M204.3,135.43c.07.71.51,1.24,1,1.2s.78-.66.71-1.37-.51-1.25-1-1.2S204.23,134.72,204.3,135.43Z" style="fill:#263238"></path><path d="M204.81,134.12l1.65-.67S205.72,134.87,204.81,134.12Z" style="fill:#263238"></path><polygon points="136.87 358.13 145.4 360.44 153.48 341.43 144.95 339.12 136.87 358.13" style="fill:#b55b52"></polygon><path d="M148.39,354l-9.81-1.55a.71.71,0,0,0-.79.49l-2.34,7.58a1.43,1.43,0,0,0,1.15,1.78c3.43.48,5.11.54,9.42,1.22,2.65.42,6.49,1.31,10.15,1.88s4.43-3,3-3.58c-6.61-2.55-7.37-4.75-9.37-7A2.37,2.37,0,0,0,148.39,354Z" style="fill:#263238"></path><polygon points="144.95 339.12 153.48 341.44 149.31 351.24 140.78 348.92 144.95 339.12" style="opacity:0.2"></polygon><path d="M175.69,162.11c-3.5-1.36-14.08,7.46-14.08,7.46l4.72,16.26s11.85-6.88,12.91-11.65C180.35,169.22,179.83,163.72,175.69,162.11Z" style="fill:#407BFF"></path><path d="M215.05,170.28c0,5.68.21,16.21-3.49,35-.67,3.41.65,4.93.06,8.41-.39,2.28-1.67,1.94-1.85,3.05H173.89c0-1.06-1.57-1.63-1.94-3.94-.83-5.28,2.23-5.72,2.13-9.05-.25-8.4-1.48-17.85-5.15-34.43a6,6,0,0,1,5-7.29c2.58-.37,5.68-.73,8.82-.88a113.56,113.56,0,0,1,16.3,0c3.18.29,6.55.78,9.29,1.23A8,8,0,0,1,215.05,170.28Z" style="fill:#407BFF"></path><path d="M205.14,175.22c1.6,3.82,6.7,9.55,9.16,12.19.38-3.68.57-6.8.67-9.44Z" style="opacity:0.2"></path><path d="M216,167.44c2.94,3,6.14,6.06,9.33,8.89a78.82,78.82,0,0,0,9.93,7.69c.42.29.85.49,1.27.75l.63.36c.09.05,0,0,0,0l-.07,0-.12,0c-.26,0,.32.11,1-.14a20.82,20.82,0,0,0,4.88-2.72,112.12,112.12,0,0,0,9.95-8.19l3.43,2.87a62.25,62.25,0,0,1-9,10.72,25,25,0,0,1-6.34,4.5,11.52,11.52,0,0,1-2.33.81,8.26,8.26,0,0,1-3.18.1,6.51,6.51,0,0,1-.92-.23,4.34,4.34,0,0,1-.47-.16l-.39-.17-.85-.4c-.55-.28-1.15-.54-1.67-.84a71.34,71.34,0,0,1-11.65-8.1,110.33,110.33,0,0,1-10.07-9.54Z" style="fill:#b55b52"></path><path d="M255.21,171a12.05,12.05,0,0,0-3.81,4.62l.75,3.36a.58.58,0,0,0,.82.39l5.37-2.64,2.24-1.14a1.29,1.29,0,0,0,.69-1.34l-.37-2.55a1.28,1.28,0,0,0-1.32-1.1l-3.48.11A1.65,1.65,0,0,0,255.21,171Z" style="fill:#b55b52"></path><path d="M158.79,215.75a12.2,12.2,0,0,1-2.1,5.61l-3.29,1a.58.58,0,0,1-.75-.51l-.39-6-.15-3.06a.53.53,0,0,1,.33-.52l3.53-1.4a.54.54,0,0,1,.67.25l2,3.67A1.72,1.72,0,0,1,158.79,215.75Z" style="fill:#b55b52"></path><path d="M122.75,245.35l35.87,4.2A4.08,4.08,0,0,0,162.7,247l7.64-21.13a2.32,2.32,0,0,0-2-3.25l-35.87-4.2a4.08,4.08,0,0,0-4.08,2.55l-7.64,21.13A2.32,2.32,0,0,0,122.75,245.35Z" style="fill:#263238"></path><path d="M127,252.72l44,5.11a3.93,3.93,0,0,0,4.3-3.26l4.28-26.91a3.55,3.55,0,0,0-3.12-4.13l-44-5.11a3.94,3.94,0,0,0-4.3,3.27l-4.28,26.91A3.54,3.54,0,0,0,127,252.72Z" style="fill:#407BFF"></path><path d="M127,252.72l44,5.11a3.93,3.93,0,0,0,4.3-3.26l4.28-26.91a3.55,3.55,0,0,0-3.12-4.13l-44-5.11a3.94,3.94,0,0,0-4.3,3.27l-4.28,26.91A3.54,3.54,0,0,0,127,252.72Z" style="opacity:0.30000000000000004"></path><path d="M161.38,229.19h-.24l-12.77-1.49h0a2,2,0,0,1-1.39-.79,2,2,0,0,1-.39-1.56l.93-5.8a4.29,4.29,0,0,1,4.69-3.56l8.54,1a4.16,4.16,0,0,1,3.64,4.8l-.9,5.62A2.15,2.15,0,0,1,161.38,229.19Zm-12.78-3.48,12.77,1.48a.14.14,0,0,0,.15-.11l.89-5.63a2.11,2.11,0,0,0-.4-1.65,2.18,2.18,0,0,0-1.49-.84L152,218a2.32,2.32,0,0,0-2.49,1.9l-.92,5.8-.08,1Z" style="fill:#407BFF"></path><path d="M175.69,258.38l-44-5.11a4.06,4.06,0,0,1-3.53-4.17l1.36-27.25a3.46,3.46,0,0,1,3.9-3.31l44,5.11a4,4,0,0,1,3.53,4.17l-1.36,27.25A3.46,3.46,0,0,1,175.69,258.38Z" style="fill:#407BFF"></path><path d="M209.18,162.72c6.79,1.64,13.82,8.33,13.82,8.33l-6,14.78s-14-8.54-15.3-13.25C200,166.32,202.63,161.14,209.18,162.72Z" style="fill:#407BFF"></path><path d="M180.21,135.46c1.43,8.65,1.86,12.34,6.71,16.36,7.31,6,17.63,2.38,18.81-6.52,1.06-8-1.46-20.82-10.34-23.41A12,12,0,0,0,180.21,135.46Z" style="fill:#b55b52"></path><path d="M201.59,122.58c-5.74-.65-16-9-21.84-.45-5.34,7.88-8.05,9-16.31,12.21-13.78,5.3-6.11,10.92-12,19.42s-15.84,6-17.25,17.49c-2.17,17.59,28.33,39.17,46.58,19.33S187,164,195.22,158.33c10.41-7.22,7.78-19.24,4.2-20.88C203.34,133.45,208.85,123.42,201.59,122.58Z" style="fill:#263238"></path><path d="M202.51,135.67a8.07,8.07,0,0,1,2.11,4.81c.13,2.25-2,2.43-3.78,1-1.64-1.26-3.69-4-3-5.84S201,134,202.51,135.67Z" style="fill:#b55b52"></path><path d="M200.3,216.78s-3.52,52.78-17.15,79.86c-5.55,11-30.9,51.95-30.9,51.95l-12.4-2.06s17.93-44.53,28.93-55c1.15-29.45-7.45-60.34,5.11-74.78Z" style="fill:#263238"></path><path d="M188.4,231a126.32,126.32,0,0,0,4.34,37c2-8.5,3.48-17.15,4.61-24.86A62,62,0,0,0,188.4,231Z" style="opacity:0.4"></path><polygon points="153.13 350.38 138.32 346.36 140.12 341.27 156.06 345.03 153.13 350.38" style="fill:#263238"></polygon><polygon points="252.49 310.92 261.49 312.24 259.69 291.91 250.69 290.58 252.49 310.92" style="fill:#b55b52"></polygon><path d="M261.52,306.18l-9.81-1.5a.71.71,0,0,0-.79.49l-2.3,7.6a1.43,1.43,0,0,0,1.17,1.77c3.43.46,5.11.51,9.43,1.16,2.65.41,6.49,1.27,10.15,1.83s4.42-3,2.94-3.6c-6.62-2.51-7.39-4.71-9.41-7A2.24,2.24,0,0,0,261.52,306.18Z" style="fill:#263238"></path><polygon points="250.68 290.58 259.7 291.91 260.53 301.41 251.61 301.07 250.68 290.58" style="opacity:0.2"></polygon><path d="M209.77,216.78s59.19,10,56.85,27.37c-3.69,27.43-5.13,52.85-5.13,52.85L250,296s-4.82-27-1.5-45.08c-13.83-6.25-72.37,18.05-65.14-34.14Z" style="fill:#263238"></path><polygon points="262.75 299.86 247.5 298.06 247.33 292.62 263.53 293.97 262.75 299.86" style="fill:#263238"></polygon><path d="M173.35,214.68l-1.62,3.21c-.13.25.17.5.58.5H210c.32,0,.59-.15.61-.36l.33-3.21c0-.22-.26-.41-.62-.41H173.93A.65.65,0,0,0,173.35,214.68Z" style="fill:#fff"></path><path d="M178.23,218.74h-1c-.2,0-.35-.1-.33-.22l.45-4.17c0-.13.19-.23.38-.23h1c.2,0,.35.1.33.23l-.45,4.17C178.59,218.64,178.42,218.74,178.23,218.74Z" style="fill:#263238"></path><path d="M201.82,218.74h-1c-.2,0-.34-.1-.33-.22l.46-4.17c0-.13.18-.23.37-.23h1c.19,0,.34.1.32.23l-.45,4.17C202.18,218.64,202,218.74,201.82,218.74Z" style="fill:#263238"></path></g></svg>